<svg xmlns="http://www.w3.org/2000/svg" width="142.557" height="23.54" viewBox="0 0 142.557 23.54">
  <g id="logo" transform="translate(-16.799 -68.037)">
    <g id="Group_3" data-name="Group 3" transform="translate(51.645 72.403)">
      <g id="Group_2" data-name="Group 2">
        <path id="Path_1" data-name="Path 1" d="M69.944,76.847q0,3.539-3.087,4.457L70.6,86.5h-3.07L64.116,81.7h-3.17V86.5H58.531V72.2H63.85q3.271,0,4.684,1.1A4.219,4.219,0,0,1,69.944,76.847Zm-3.211,2.025a2.547,2.547,0,0,0,.737-2.035,2.181,2.181,0,0,0-.757-1.923,5.035,5.035,0,0,0-2.7-.521H60.946v5.113h3.005A4.417,4.417,0,0,0,66.733,78.871Z" transform="translate(-46.177 -71.857)" fill="#ffffff"/>
        <path id="Path_2" data-name="Path 2" d="M83.769,84.568a7.843,7.843,0,0,1-10.718,0,7.505,7.505,0,0,1,0-10.554,7.84,7.84,0,0,1,10.718,0,7.505,7.505,0,0,1,0,10.554ZM82,75.618a5.015,5.015,0,0,0-7.182,0,5.347,5.347,0,0,0,0,7.346,5.023,5.023,0,0,0,7.182,0,5.347,5.347,0,0,0,0-7.346Z" transform="translate(-44.559 -71.897)" fill="#ffffff"/>
        <path id="Path_3" data-name="Path 3" d="M96.9,79.587h2.41v4.888A7.409,7.409,0,0,1,93.52,86.7a7.3,7.3,0,0,1-5.309-2.084,7.583,7.583,0,0,1,.042-10.6A7.263,7.263,0,0,1,93.52,71.9a7.48,7.48,0,0,1,5.133,1.8l-1.286,1.84a5.027,5.027,0,0,0-1.689-.992,6.417,6.417,0,0,0-1.974-.276,5.085,5.085,0,0,0-3.641,1.4,5.034,5.034,0,0,0,3.426,8.725,6.181,6.181,0,0,0,3.408-.881Z" transform="translate(-42.569 -71.897)" fill="#ffffff"/>
        <path id="Path_4" data-name="Path 4" d="M111.992,76.847q0,3.539-3.09,4.457l3.743,5.2h-3.067L106.163,81.7h-3.17V86.5h-2.415V72.2h5.317q3.276,0,4.686,1.1A4.219,4.219,0,0,1,111.992,76.847Zm-3.212,2.025a2.55,2.55,0,0,0,.735-2.035,2.18,2.18,0,0,0-.754-1.923,5.038,5.038,0,0,0-2.7-.521h-3.068v5.113H106A4.422,4.422,0,0,0,108.78,78.871Z" transform="translate(-40.668 -71.857)" fill="#ffffff"/>
        <path id="Path_5" data-name="Path 5" d="M131.459,84.568a7.845,7.845,0,0,1-10.719,0,7.508,7.508,0,0,1,0-10.554,7.842,7.842,0,0,1,10.719,0,7.505,7.505,0,0,1,0,10.554Zm-1.77-8.95a5.011,5.011,0,0,0-7.179,0,5.344,5.344,0,0,0,0,7.346,5.019,5.019,0,0,0,7.179,0,5.344,5.344,0,0,0,0-7.346Z" transform="translate(-38.31 -71.897)" fill="#ffffff"/>
        <path id="Path_6" data-name="Path 6" d="M113.744,74.033" transform="translate(-38.943 -71.617)" fill="#ffffff"/>
        <path id="Path_7" data-name="Path 7" d="M113.744,74.606V86.5h2.413V72.2l-.032.021Z" transform="translate(-38.943 -71.857)" fill="#ffffff"/>
        <path id="Path_8" data-name="Path 8" d="M144.126,72.282V72.2H133.04v2.209h4.336V86.5h2.415V74.413H142Z" transform="translate(-36.415 -71.857)" fill="#ffffff"/>
        <g id="Group_1" data-name="Group 1" transform="translate(0 0.347)">
          <path id="Path_9" data-name="Path 9" d="M52.681,80.591,54.89,78.38H50.022V74.454h4.84l2.251-2.25h-9.5V86.5h2.413V80.611H52.7Z" transform="translate(-47.608 -72.204)" fill="#ffffff"/>
        </g>
      </g>
    </g>
    <path id="Path_10" data-name="Path 10" d="M40.1,79.983a1.867,1.867,0,0,0-1.867,1.867c0,.171.04.4-.46.855a25.162,25.162,0,0,1-3.227,1.673s-1.111.541-1.283.43-.036-1.03-.036-1.03.451-4.831.521-5.663a11.811,11.811,0,0,1,.248-2,1.758,1.758,0,0,1,.733-.886,2.247,2.247,0,1,0-3.136-.907c.159.308.614.779.628,1.142a8.012,8.012,0,0,1-.572,2.036c-.2.58-1.671,4.719-1.671,4.719s-.161.605-.344.56-.317-.734-.317-.734l-1.9-6.571a16.048,16.048,0,0,1-.595-2.315,2.785,2.785,0,0,1,.64-1.322,2.393,2.393,0,1,0-3.012.719A2.34,2.34,0,0,1,25,73.3a3.835,3.835,0,0,1,.307,1.484c.144,1.2.563,8.692.563,8.692s.11.825-.088.846-.26.031-.566-.183-3.439-3.779-3.439-3.779-.8-.976-.854-1.114a1.471,1.471,0,0,1,.062-.647,2.15,2.15,0,1,0-2.035,1.458,1.544,1.544,0,0,1,.735.257,2.168,2.168,0,0,1,.38.7l5.048,10.573A16.764,16.764,0,0,1,29.6,91.03a16.729,16.729,0,0,1,4.487.547s3.252-5.566,3.644-6.2A3.507,3.507,0,0,1,39.02,84a1.712,1.712,0,0,1,1.085-.286,1.867,1.867,0,1,0,0-3.734ZM33.1,89.937a18.087,18.087,0,0,0-3.5-.485,18.1,18.1,0,0,0-3.5.485l-2.3-4.789,3.421,2.51.236-6.665,2.2,6.922,2.094-4.986.192,4.936L36.23,84.99Z" transform="translate(0 0)" fill="#ff6600"/>
  </g>
</svg>
